
<svg width="470" height="190" version="1.1" xmlns="http://www.w3.org/2000/svg">
        <rect width="100%" height="100%" fill="black"></rect>
        
        <!--this is the N -->
        <line x1="50" x2="50" y1="60" y2="150" stroke="darkred" stroke-width="10"/>
        <line x1="80" x2="80" y1="60" y2="150" stroke="darkred" stroke-width="10"/>
        <line x1="50" x2="80" y1="60" y2="150" stroke="red" stroke-width="10"/>
        <!-- the end of the N -->
      
        <!--<rect x="90" width="90" height="190"> -->
          
        <!--this is the E-->
        <line class="text-1" x1="110" x2="110" y1="60" y2="150" stroke="red" stroke-width="10"/>
        <line class="text-1" x1="105" x2="140" y1="65" y2="65" stroke="red" stroke-width="10"/>
        <line class="text-1" x1="105" x2="130" y1="105" y2="105" stroke="red" stroke-width="10"/>
        <line class="text-1" x1="105" x2="140" y1="145" y2="145" stroke="red" stroke-width="10"/>
        <!-- the end of the E -->
      
        <!--this is the T-->
        <line class="text-1" x1="175" x2="175" y1="60" y2="150" stroke="red" stroke-width="10"/>
        <line class="text-1" x1="150" x2="200" y1="65" y2="65" stroke="red" stroke-width="10"/>
        <!-- the end of the T -->
        
        <!--this is the F-->
        <line class="text-1" x1="213" x2="213" y1="60" y2="150" stroke="red" stroke-width="10"/>
        <line class="text-1" x1="210" x2="250" y1="65" y2="65" stroke="red" stroke-width="10"/>
        <line class="text-1" x1="210" x2="240" y1="105" y2="105" stroke="red" stroke-width="10"/>
        <!-- the end of the F -->
        
         <!--this is the L-->
        <line class="text-1" x1="264" x2="264" y1="60" y2="150" stroke="red" stroke-width="10"/>
        <line class="text-1" x1="264" x2="290" y1="145" y2="145" stroke="red" stroke-width="10"/>
        <!-- the end of the L -->
        
        <!--this is the I-->
        <line class="text-1" x1="305" x2="305" y1="60" y2="150" stroke="red" stroke-width="10"/>
        <!-- the end of the I -->
        
        <!--this is the X-->
        <line class="text-1" x1="354" x2="322" y1="60" y2="150" stroke="red" stroke-width="10"/>
        <line class="text-1" x1="322" x2="354" y1="60" y2="150" stroke="red" stroke-width="10"/>
        <!-- -the end of the X -->
      
        <path class="path" d="M410.68 112.55L382.97 60L374.94 60L368 60L368 145.4L382.97 145.4L382.97 97.96L410.68 145.4L425.66 145.4L425.66 60L410.68 60L410.68 112.55Z" stroke="blue" fill="transparent"></path>
     
      
  
  <style>
 .path{
  stroke-dasharray: 1000;
  stroke-dashoffset: 1000;
  animation: dash 5s linear forwards;
}

@keyframes dash {
  from {
    stroke-dashoffset: 1100;
  }
  to {
    stroke-dashoffset: 0;
    fill: red;
  }
}

 .line:hover {
  fill: blue;
  stroke: blue;
} 

@keyframes hideshow {
     from {
          opacity: 0; 
    }
    to {
        opacity: 1; 
    }
} 

@-webkit-keyframes hideshow {
    from {
          opacity: 0; 
    }
    to {
        opacity: 1; 
    }
}

.text-1 {
  animation: hideshow 15s ease;
}
  </style>
</svg>